<?xml version="1.0" encoding="utf-8"?>
<!-- Generator: Adobe Illustrator 22.1.0, SVG Export Plug-In . SVG Version: 6.00 Build 0)  -->
<svg version="1.1" id="Capa_1" xmlns="http://www.w3.org/2000/svg" xmlns:xlink="http://www.w3.org/1999/xlink" x="0px" y="0px"
	 viewBox="0 0 253.2 86" style="enable-background:new 0 0 253.2 86;" xml:space="preserve">
<style type="text/css">
	.st0{fill:#040006;}
</style>
<g>
	<path class="st0" d="M253.2,86H0V0h253.2V86z M4,82h245.2V4H4V82z"/>
</g>
<g>
	<g>
		<path d="M46.8,44.6c-0.9,1.6-2.1,2.8-3.8,3.7c-1.7,0.9-3.6,1.3-6,1.3h-6.7V28.6h6.7c2.3,0,4.3,0.4,6,1.3c1.7,0.8,2.9,2,3.8,3.6
			c0.9,1.6,1.3,3.4,1.3,5.6C48.1,41.2,47.7,43.1,46.8,44.6z M43.2,45c1.4-1.4,2.2-3.4,2.2-5.9s-0.7-4.5-2.2-6
			c-1.4-1.4-3.5-2.1-6.3-2.1h-3.7v16.1h3.7C39.6,47.1,41.7,46.4,43.2,45z"/>
	</g>
	<g>
		<path d="M66.6,42h-13c0.1,1.9,0.6,3.3,1.6,4.2c1,0.9,2.2,1.4,3.7,1.4c1.3,0,2.4-0.3,3.3-1c0.9-0.7,1.4-1.5,1.6-2.7h2.9
			c-0.2,1.1-0.6,2.1-1.3,3c-0.7,0.9-1.6,1.6-2.7,2.1c-1.1,0.5-2.3,0.7-3.7,0.7c-1.6,0-3-0.3-4.2-1c-1.2-0.7-2.2-1.6-2.8-2.9
			c-0.7-1.3-1-2.7-1-4.4s0.3-3.2,1-4.5c0.7-1.3,1.6-2.2,2.8-2.9c1.2-0.7,2.6-1,4.2-1c1.6,0,3,0.3,4.1,1c1.2,0.7,2.1,1.6,2.7,2.7
			c0.6,1.1,0.9,2.4,0.9,3.7C66.7,41.1,66.7,41.6,66.6,42z M63.4,37.7c-0.5-0.8-1.1-1.4-1.9-1.8c-0.8-0.4-1.7-0.6-2.6-0.6
			c-1.5,0-2.7,0.5-3.7,1.4c-1,0.9-1.6,2.3-1.6,4.1H64C64.1,39.5,63.9,38.5,63.4,37.7z"/>
	</g>
	<g>
		<path d="M79.8,34.5c1.1,1,1.8,2.3,2,3.9h-2.6c-0.1-1-0.5-1.8-1.2-2.4s-1.6-0.9-2.7-0.9c-1,0-1.7,0.2-2.3,0.7
			c-0.5,0.5-0.8,1.1-0.8,1.9c0,0.6,0.2,1.1,0.5,1.4c0.4,0.4,0.8,0.6,1.4,0.8c0.5,0.2,1.3,0.4,2.2,0.6c1.2,0.3,2.2,0.6,2.9,0.8
			s1.4,0.7,1.9,1.4s0.8,1.5,0.8,2.6c0,1.3-0.5,2.4-1.5,3.2c-1,0.8-2.3,1.2-4,1.2c-1.9,0-3.5-0.5-4.8-1.4c-1.2-0.9-2-2.2-2.2-3.9h2.6
			c0.1,1,0.5,1.8,1.3,2.4c0.8,0.6,1.8,0.9,3,0.9c0.9,0,1.7-0.2,2.2-0.7c0.5-0.5,0.8-1.1,0.8-1.9c0-0.6-0.2-1.1-0.6-1.5
			c-0.4-0.4-0.8-0.7-1.4-0.9c-0.6-0.2-1.3-0.4-2.3-0.6c-1.2-0.3-2.2-0.6-2.9-0.8c-0.7-0.3-1.3-0.7-1.8-1.3c-0.5-0.6-0.8-1.4-0.8-2.5
			c0-1.4,0.5-2.5,1.5-3.3c1-0.8,2.4-1.3,4.1-1.3C77.2,33.1,78.7,33.5,79.8,34.5z"/>
	</g>
	<g>
		<path d="M98,34.7c1.4,1.1,2.2,2.6,2.5,4.5h-2.9c-0.2-1.2-0.7-2.1-1.6-2.7c-0.9-0.7-2-1-3.3-1c-1,0-1.8,0.2-2.6,0.7
			c-0.8,0.4-1.4,1.1-1.9,2s-0.7,2-0.7,3.3c0,1.3,0.2,2.4,0.7,3.3s1.1,1.6,1.9,2c0.8,0.4,1.6,0.7,2.6,0.7c1.3,0,2.4-0.3,3.3-1
			c0.9-0.7,1.4-1.6,1.6-2.8h2.9c-0.3,1.9-1.2,3.4-2.5,4.5c-1.4,1.1-3.1,1.6-5.2,1.6c-1.6,0-3-0.3-4.2-1c-1.2-0.7-2.2-1.6-2.8-2.9
			c-0.7-1.3-1-2.7-1-4.4s0.3-3.2,1-4.5c0.7-1.3,1.6-2.2,2.8-2.9c1.2-0.7,2.6-1,4.2-1C94.9,33.1,96.7,33.6,98,34.7z"/>
	</g>
	<g>
		<path d="M114.8,34.3c1.1,0.8,1.9,1.9,2.3,3.2v-4.2h2.7v16.3h-2.7v-4.2c-0.4,1.3-1.2,2.4-2.3,3.2c-1.1,0.8-2.4,1.2-4,1.2
			c-1.4,0-2.7-0.3-3.9-1s-2-1.6-2.7-2.9c-0.6-1.3-1-2.7-1-4.4s0.3-3.2,1-4.5c0.6-1.3,1.5-2.2,2.7-2.9c1.1-0.7,2.4-1,3.9-1
			C112.4,33.1,113.7,33.5,114.8,34.3z M107.5,37.1c-1,1.1-1.5,2.5-1.5,4.4s0.5,3.3,1.5,4.4c1,1.1,2.3,1.6,4,1.6c1.1,0,2-0.2,2.9-0.7
			c0.8-0.5,1.5-1.2,2-2.1c0.5-0.9,0.7-1.9,0.7-3.1c0-1.2-0.2-2.2-0.7-3.1c-0.5-0.9-1.1-1.6-2-2.1c-0.8-0.5-1.8-0.7-2.9-0.7
			C109.9,35.5,108.5,36,107.5,37.1z"/>
	</g>
	<g>
		<path d="M129.2,33.9c1-0.6,2.3-0.9,3.7-0.9v2.9H132c-1.5,0-2.8,0.4-3.7,1.2c-1,0.8-1.5,2.1-1.5,3.9v8.6h-2.7V33.3h2.7v3.3
			C127.3,35.4,128.1,34.6,129.2,33.9z"/>
	</g>
	<g>
		<path d="M146.2,34.3c1.1,0.8,1.9,1.9,2.3,3.2v-4.2h2.7v16.6c0,1.5-0.3,2.8-1,4c-0.6,1.2-1.5,2.1-2.7,2.7c-1.1,0.7-2.5,1-4,1
			c-2.2,0-4-0.5-5.4-1.6c-1.4-1.1-2.3-2.5-2.6-4.3h2.7c0.3,1.1,0.9,1.9,1.8,2.6c0.9,0.6,2,0.9,3.4,0.9c1.5,0,2.7-0.5,3.6-1.4
			c1-0.9,1.4-2.3,1.4-3.9v-4.4c-0.4,1.3-1.2,2.4-2.3,3.2c-1.1,0.8-2.4,1.2-4,1.2c-1.4,0-2.7-0.3-3.9-1s-2-1.6-2.7-2.9
			c-0.6-1.3-1-2.7-1-4.4s0.3-3.2,1-4.5c0.6-1.3,1.5-2.2,2.7-2.9c1.1-0.7,2.4-1,3.9-1C143.8,33.1,145.1,33.5,146.2,34.3z M139,37.1
			c-1,1.1-1.5,2.5-1.5,4.4s0.5,3.3,1.5,4.4c1,1.1,2.3,1.6,4,1.6c1.1,0,2-0.2,2.9-0.7c0.8-0.5,1.5-1.2,2-2.1c0.5-0.9,0.7-1.9,0.7-3.1
			c0-1.2-0.2-2.2-0.7-3.1c-0.5-0.9-1.1-1.6-2-2.1c-0.8-0.5-1.8-0.7-2.9-0.7C141.3,35.5,140,36,139,37.1z"/>
	</g>
	<g>
		<path d="M166.2,34.3c1.1,0.8,1.9,1.9,2.3,3.2v-4.2h2.7v16.3h-2.7v-4.2c-0.4,1.3-1.2,2.4-2.3,3.2c-1.1,0.8-2.4,1.2-4,1.2
			c-1.4,0-2.7-0.3-3.9-1s-2-1.6-2.7-2.9c-0.6-1.3-1-2.7-1-4.4s0.3-3.2,1-4.5c0.6-1.3,1.5-2.2,2.7-2.9c1.1-0.7,2.4-1,3.9-1
			C163.8,33.1,165.1,33.5,166.2,34.3z M159,37.1c-1,1.1-1.5,2.5-1.5,4.4s0.5,3.3,1.5,4.4c1,1.1,2.3,1.6,4,1.6c1.1,0,2-0.2,2.9-0.7
			c0.8-0.5,1.5-1.2,2-2.1c0.5-0.9,0.7-1.9,0.7-3.1c0-1.2-0.2-2.2-0.7-3.1c-0.5-0.9-1.1-1.6-2-2.1c-0.8-0.5-1.8-0.7-2.9-0.7
			C161.3,35.5,160,36,159,37.1z"/>
	</g>
	<g>
		<path d="M198.5,30.3c1.7,1.3,2.8,3,3.4,5.2h-2.9c-0.5-1.4-1.4-2.5-2.6-3.3c-1.2-0.8-2.6-1.2-4.4-1.2c-1.4,0-2.6,0.3-3.7,1
			c-1.1,0.7-1.9,1.6-2.6,2.9c-0.6,1.2-0.9,2.7-0.9,4.4c0,1.6,0.3,3.1,0.9,4.3c0.6,1.2,1.5,2.2,2.6,2.8c1.1,0.7,2.3,1,3.7,1
			c1.7,0,3.2-0.4,4.4-1.2c1.2-0.8,2-1.9,2.6-3.3h2.9c-0.6,2.2-1.8,3.9-3.4,5.2c-1.7,1.3-3.8,1.9-6.3,1.9c-2,0-3.7-0.5-5.2-1.4
			c-1.5-0.9-2.7-2.2-3.5-3.8s-1.3-3.5-1.3-5.5c0-2.1,0.4-3.9,1.3-5.6c0.8-1.6,2-2.9,3.5-3.8s3.2-1.4,5.2-1.4
			C194.7,28.4,196.8,29.1,198.5,30.3z"/>
	</g>
	<g>
		<path d="M206.9,28.6l6.4,17.9l6.5-17.9h2.9L215,49.6h-3.4l-7.7-20.9H206.9z"/>
	</g>
</g>
</svg>
