<?xml version="1.0" encoding="utf-8"?>
<!-- Generator: Adobe Illustrator 22.1.0, SVG Export Plug-In . SVG Version: 6.00 Build 0)  -->
<svg version="1.1" id="Capa_1" xmlns="http://www.w3.org/2000/svg" xmlns:xlink="http://www.w3.org/1999/xlink" x="0px" y="0px"
	 viewBox="0 0 253.2 86" style="enable-background:new 0 0 253.2 86;" xml:space="preserve">
<style type="text/css">
	.st0{fill:none;stroke:#040006;stroke-width:4;stroke-miterlimit:10;}
</style>
<rect x="2" y="2" class="st0" width="249.2" height="82"/>
<g>
	<path d="M85.4,35.4v7.2h8v2.1h-8V52h8.9v2.2H82.7V33.2h11.6v2.2H85.4z"/>
	<path d="M110.9,39.4c1.2,1.2,1.8,3,1.8,5.3v9.5H110v-9.2c0-1.6-0.4-2.9-1.2-3.7c-0.8-0.9-2-1.3-3.4-1.3c-1.5,0-2.7,0.5-3.6,1.4
		c-0.9,1-1.3,2.4-1.3,4.2v8.6h-2.7V37.9h2.7v3.9c0.4-1.3,1.2-2.3,2.2-3.1c1.1-0.7,2.3-1.1,3.7-1.1C108.2,37.6,109.7,38.2,110.9,39.4
		z"/>
	<path d="M123.1,51.3l5-13.4h2.9l-6.4,16.3h-3.2l-6.4-16.3h2.9L123.1,51.3z"/>
	<path d="M133.8,31.9c0.3-0.3,0.8-0.5,1.3-0.5c0.6,0,1,0.2,1.3,0.5c0.3,0.3,0.5,0.7,0.5,1.2s-0.2,0.9-0.5,1.2
		c-0.3,0.3-0.8,0.5-1.3,0.5c-0.6,0-1-0.2-1.3-0.5c-0.3-0.3-0.5-0.7-0.5-1.2S133.4,32.2,133.8,31.9z M136.5,37.9v16.3h-2.7V37.9
		H136.5z"/>
	<path d="M151.5,38.8c1.1,0.8,1.9,1.9,2.3,3.2v-4.2h2.7v16.3h-2.7V50c-0.4,1.3-1.2,2.4-2.3,3.2c-1.1,0.8-2.4,1.2-4,1.2
		c-1.4,0-2.7-0.3-3.9-1s-2-1.6-2.7-2.9c-0.6-1.3-1-2.7-1-4.4s0.3-3.2,1-4.5c0.6-1.3,1.5-2.2,2.7-2.9c1.1-0.7,2.4-1,3.9-1
		C149.1,37.6,150.4,38,151.5,38.8z M144.2,41.6c-1,1.1-1.5,2.5-1.5,4.4s0.5,3.3,1.5,4.4c1,1.1,2.3,1.6,4,1.6c1.1,0,2-0.2,2.9-0.7
		c0.8-0.5,1.5-1.2,2-2.1c0.5-0.9,0.7-1.9,0.7-3.1c0-1.2-0.2-2.2-0.7-3.1c-0.5-0.9-1.1-1.6-2-2.1c-0.8-0.5-1.8-0.7-2.9-0.7
		C146.6,40,145.2,40.6,144.2,41.6z"/>
	<path d="M165.9,38.5c1-0.6,2.3-0.9,3.7-0.9v2.9h-0.8c-1.5,0-2.8,0.4-3.7,1.2c-1,0.8-1.5,2.1-1.5,3.9v8.6h-2.7V37.9h2.7v3.3
		C164,40,164.8,39.1,165.9,38.5z"/>
</g>
</svg>
