<?xml version="1.0" encoding="utf-8"?>
<!-- Generator: Adobe Illustrator 22.1.0, SVG Export Plug-In . SVG Version: 6.00 Build 0)  -->
<svg version="1.1" id="Capa_1" xmlns="http://www.w3.org/2000/svg" xmlns:xlink="http://www.w3.org/1999/xlink" x="0px" y="0px"
	 viewBox="0 0 39.6 39.6" style="enable-background:new 0 0 39.6 39.6;" xml:space="preserve">
<g>
	<g>
		<path d="M29,17.6c-3.1,0-3.5,3.1-3.5,3.1H32C32,20.7,32,17.6,29,17.6z"/>
		<path d="M14.1,20.7H8.3V26h5.5c0.8,0,2.4-0.3,2.4-2.6C16.2,20.7,14.1,20.7,14.1,20.7z"/>
		<path d="M15.5,15.2c0-2.1-1.4-2.1-1.4-2.1h-0.7H8.3v4.5h5.4C14.7,17.6,15.5,17.3,15.5,15.2z"/>
		<path d="M37.5,0H2.1C0.9,0,0,0.9,0,2.1v35.4c0,1.2,0.9,2.1,2.1,2.1h35.4c1.2,0,2.1-0.9,2.1-2.1V2.1C39.6,0.9,38.7,0,37.5,0z
			 M24.6,10.8h8.2v2.5h-8.2V10.8z M20.4,23.7c0,6.1-6.3,5.9-6.3,5.9H8.3H8.1H3.7v-20h4.4h0.2h5.8c3.2,0,5.6,1.7,5.6,5.3
			s-3,3.8-3,3.8C20.7,18.7,20.4,23.7,20.4,23.7z M35.8,23.3H25.5c0,3.7,3.5,3.5,3.5,3.5c3.3,0,3.2-2.1,3.2-2.1h3.5
			c0,5.7-6.8,5.3-6.8,5.3c-8.2,0-7.7-7.6-7.7-7.6s0-7.7,7.7-7.7C37,14.7,35.8,23.3,35.8,23.3z"/>
	</g>
</g>
<g>
	<g>
		<g>
			<path d="M-27-0.4h-15.2c-7,0-12.6,5.7-12.6,12.6v15.2c0,7,5.7,12.6,12.6,12.6H-27c7,0,12.6-5.7,12.6-12.6V12.2
				C-14.3,5.2-20-0.4-27-0.4z M-18.1,27.4c0,4.9-4,8.8-8.8,8.8h-15.2c-4.9,0-8.8-4-8.8-8.8V12.2c0-4.9,4-8.8,8.8-8.8H-27
				c4.9,0,8.8,4,8.8,8.8V27.4z"/>
		</g>
	</g>
	<g>
		<g>
			<path d="M-34.5,9.7c-5.6,0-10.1,4.5-10.1,10.1s4.5,10.1,10.1,10.1s10.1-4.5,10.1-10.1S-29,9.7-34.5,9.7z M-34.5,26.1
				c-3.5,0-6.3-2.8-6.3-6.3c0-3.5,2.8-6.3,6.3-6.3c3.5,0,6.3,2.8,6.3,6.3C-28.2,23.3-31.1,26.1-34.5,26.1z"/>
		</g>
	</g>
	<g>
		<g>
			<circle cx="-23.7" cy="8.9" r="1.3"/>
		</g>
	</g>
</g>
<g>
	<path d="M-75.3,1.3h-27.1c-2.8,0-5,2.2-5,5v27.1c0,2.8,2.2,5,5,5h13.4l0-13.2h-3.4c-0.4,0-0.8-0.4-0.8-0.8l0-4.3
		c0-0.4,0.4-0.8,0.8-0.8h3.4v-4.1c0-4.8,2.9-7.4,7.2-7.4h3.5c0.4,0,0.8,0.4,0.8,0.8v3.6c0,0.4-0.4,0.8-0.8,0.8l-2.2,0
		c-2.3,0-2.8,1.1-2.8,2.7v3.6h5.1c0.5,0,0.9,0.4,0.8,0.9l-0.5,4.3c0,0.4-0.4,0.7-0.8,0.7h-4.6l0,13.2h7.9c2.8,0,5-2.2,5-5V6.3
		C-70.3,3.5-72.6,1.3-75.3,1.3z"/>
</g>
</svg>
