<?xml version="1.0" encoding="utf-8"?>
<!-- Generator: Adobe Illustrator 22.1.0, SVG Export Plug-In . SVG Version: 6.00 Build 0)  -->
<svg version="1.1" id="Capa_1" xmlns="http://www.w3.org/2000/svg" xmlns:xlink="http://www.w3.org/1999/xlink" x="0px" y="0px"
	 viewBox="0 0 37.1 37.1" style="enable-background:new 0 0 37.1 37.1;" xml:space="preserve">
<g>
	<g>
		<path d="M136.4,16.3c-3.1,0-3.5,3.1-3.5,3.1h6.6C139.4,19.4,139.5,16.3,136.4,16.3z"/>
		<path d="M121.5,19.4h-5.8v5.3h5.5c0.8,0,2.4-0.3,2.4-2.6C123.6,19.4,121.5,19.4,121.5,19.4z"/>
		<path d="M122.9,14c0-2.1-1.4-2.1-1.4-2.1h-0.7h-5.1v4.5h5.4C122.1,16.3,122.9,16,122.9,14z"/>
		<path d="M144.9-1.3h-35.4c-1.2,0-2.1,0.9-2.1,2.1v35.4c0,1.2,0.9,2.1,2.1,2.1h35.4c1.2,0,2.1-0.9,2.1-2.1V0.8
			C147-0.3,146.1-1.3,144.9-1.3z M132,9.5h8.2V12H132V9.5z M127.8,22.4c0,6.1-6.3,5.9-6.3,5.9h-5.8h-0.2h-4.4v-20h4.4h0.2h5.8
			c3.2,0,5.6,1.7,5.6,5.3s-3,3.8-3,3.8C128.1,17.5,127.8,22.4,127.8,22.4z M143.2,22.1h-10.3c0,3.7,3.5,3.5,3.5,3.5
			c3.3,0,3.2-2.1,3.2-2.1h3.5c0,5.7-6.8,5.3-6.8,5.3c-8.2,0-7.7-7.6-7.7-7.6s0-7.7,7.7-7.7C144.4,13.4,143.2,22.1,143.2,22.1z"/>
	</g>
</g>
<g>
	<g>
		<g>
			<path d="M80.4-1.7H65.3c-7,0-12.6,5.7-12.6,12.6v15.2c0,7,5.7,12.6,12.6,12.6h15.2c7,0,12.6-5.7,12.6-12.6V11
				C93.1,4,87.4-1.7,80.4-1.7z M89.3,26.1c0,4.9-4,8.8-8.8,8.8H65.3c-4.9,0-8.8-4-8.8-8.8V11c0-4.9,4-8.8,8.8-8.8h15.2
				c4.9,0,8.8,4,8.8,8.8V26.1z"/>
		</g>
	</g>
	<g>
		<g>
			<path d="M72.9,8.4c-5.6,0-10.1,4.5-10.1,10.1s4.5,10.1,10.1,10.1c5.6,0,10.1-4.5,10.1-10.1S78.5,8.4,72.9,8.4z M72.9,24.9
				c-3.5,0-6.3-2.8-6.3-6.3c0-3.5,2.8-6.3,6.3-6.3s6.3,2.8,6.3,6.3C79.2,22,76.4,24.9,72.9,24.9z"/>
		</g>
	</g>
	<g>
		<g>
			<circle cx="83.7" cy="7.7" r="1.3"/>
		</g>
	</g>
</g>
<g>
	<path d="M32.1,0H5C2.2,0,0,2.2,0,5v27.1c0,2.8,2.2,5,5,5h13.4l0-13.2h-3.4c-0.4,0-0.8-0.4-0.8-0.8l0-4.3c0-0.4,0.4-0.8,0.8-0.8h3.4
		v-4.1c0-4.8,2.9-7.4,7.2-7.4H29c0.4,0,0.8,0.4,0.8,0.8v3.6c0,0.4-0.4,0.8-0.8,0.8l-2.2,0c-2.3,0-2.8,1.1-2.8,2.7v3.6h5.1
		c0.5,0,0.9,0.4,0.8,0.9l-0.5,4.3c0,0.4-0.4,0.7-0.8,0.7h-4.6l0,13.2h7.9c2.8,0,5-2.2,5-5V5C37.1,2.2,34.8,0,32.1,0z"/>
</g>
</svg>
