<?xml version="1.0" encoding="utf-8"?>
<!-- Generator: Adobe Illustrator 22.1.0, SVG Export Plug-In . SVG Version: 6.00 Build 0)  -->
<svg version="1.1" id="Capa_1" xmlns="http://www.w3.org/2000/svg" xmlns:xlink="http://www.w3.org/1999/xlink" x="0px" y="0px"
	 viewBox="0 0 40.4 40.4" style="enable-background:new 0 0 40.4 40.4;" xml:space="preserve">
<g>
	<g>
		<path d="M83.7,18c-3.1,0-3.5,3.1-3.5,3.1h6.6C86.8,21.1,86.8,18,83.7,18z"/>
		<path d="M68.8,21.1H63v5.3h5.5c0.8,0,2.4-0.3,2.4-2.6C71,21.1,68.8,21.1,68.8,21.1z"/>
		<path d="M70.3,15.6c0-2.1-1.4-2.1-1.4-2.1h-0.7H63V18h5.4C69.4,18,70.3,17.7,70.3,15.6z"/>
		<path d="M92.2,0.4H56.9c-1.2,0-2.1,0.9-2.1,2.1v35.4c0,1.2,0.9,2.1,2.1,2.1h35.4c1.2,0,2.1-0.9,2.1-2.1V2.5
			C94.3,1.4,93.4,0.4,92.2,0.4z M79.4,11.2h8.2v2.5h-8.2V11.2z M75.2,24.1c0,6.1-6.3,5.9-6.3,5.9H63h-0.2h-4.4V10h4.4H63h5.8
			c3.2,0,5.6,1.7,5.6,5.3s-3,3.8-3,3.8C75.5,19.1,75.2,24.1,75.2,24.1z M90.6,23.8H80.2c0,3.7,3.5,3.5,3.5,3.5
			c3.3,0,3.2-2.1,3.2-2.1h3.5c0,5.7-6.8,5.3-6.8,5.3c-8.2,0-7.7-7.6-7.7-7.6s0-7.7,7.7-7.7C91.7,15.1,90.6,23.8,90.6,23.8z"/>
	</g>
</g>
<g>
	<g>
		<g>
			<path d="M27.8,0H12.6C5.7,0,0,5.7,0,12.6v15.2c0,7,5.7,12.6,12.6,12.6h15.2c7,0,12.6-5.7,12.6-12.6V12.6C40.4,5.7,34.8,0,27.8,0z
				 M36.6,27.8c0,4.9-4,8.8-8.8,8.8H12.6c-4.9,0-8.8-4-8.8-8.8V12.6c0-4.9,4-8.8,8.8-8.8h15.2c4.9,0,8.8,4,8.8,8.8V27.8z"/>
		</g>
	</g>
	<g>
		<g>
			<path d="M20.2,10.1c-5.6,0-10.1,4.5-10.1,10.1s4.5,10.1,10.1,10.1s10.1-4.5,10.1-10.1S25.8,10.1,20.2,10.1z M20.2,26.5
				c-3.5,0-6.3-2.8-6.3-6.3c0-3.5,2.8-6.3,6.3-6.3s6.3,2.8,6.3,6.3C26.5,23.7,23.7,26.5,20.2,26.5z"/>
		</g>
	</g>
	<g>
		<g>
			<circle cx="31.1" cy="9.4" r="1.3"/>
		</g>
	</g>
</g>
<g>
	<path d="M-20.6,1.7h-27.1c-2.8,0-5,2.2-5,5v27.1c0,2.8,2.2,5,5,5h13.4l0-13.2h-3.4c-0.4,0-0.8-0.4-0.8-0.8l0-4.3
		c0-0.4,0.4-0.8,0.8-0.8h3.4v-4.1c0-4.8,2.9-7.4,7.2-7.4h3.5c0.4,0,0.8,0.4,0.8,0.8v3.6c0,0.4-0.4,0.8-0.8,0.8l-2.2,0
		c-2.3,0-2.8,1.1-2.8,2.7v3.6h5.1c0.5,0,0.9,0.4,0.8,0.9l-0.5,4.3c0,0.4-0.4,0.7-0.8,0.7h-4.6l0,13.2h7.9c2.8,0,5-2.2,5-5V6.7
		C-15.6,3.9-17.8,1.7-20.6,1.7z"/>
</g>
</svg>
